<svg width="193pt" height="18pt" viewBox="0 0 195 20" xmlns="http://www.w3.org/2000/svg"><g id="fontsvg1672123500458" stroke-linecap="round" fill-rule="evenodd" fill="#ded9d9"><path d="M 108.666 18 L 103.464 9 L 108.666 9 L 111.258 4.5 L 106.056 4.5 L 100.872 13.5 L 103.464 18 L 98.262 18 L 95.67 13.5 L 103.464 0 L 113.85 0 L 116.46 4.5 L 111.258 13.5 L 113.85 18 L 108.666 18 Z M 124.236 4.5 L 116.442 18 L 113.85 13.5 L 121.644 0 L 132.03 0 L 134.64 4.5 L 126.846 18 L 121.644 18 L 124.236 13.5 L 121.644 9 L 126.846 9 L 129.438 4.5 L 124.236 4.5 Z M 31.176 13.5 L 36.36 13.5 L 38.97 18 L 28.566 18 L 25.974 13.5 L 33.768 0 L 44.154 0 L 46.764 4.5 L 36.36 4.5 L 35.064 6.75 L 40.266 6.75 L 37.656 11.25 L 32.472 11.25 L 31.176 13.5 Z M 67.536 13.5 L 72.72 13.5 L 75.33 18 L 64.926 18 L 62.334 13.5 L 70.128 0 L 80.514 0 L 83.124 4.5 L 72.72 4.5 L 71.424 6.75 L 76.626 6.75 L 74.016 11.25 L 68.832 11.25 L 67.536 13.5 Z M 163.206 13.5 L 168.39 13.5 L 171 18 L 160.596 18 L 158.004 13.5 L 165.798 0 L 176.184 0 L 178.794 4.5 L 168.39 4.5 L 167.094 6.75 L 172.296 6.75 L 169.686 11.25 L 164.502 11.25 L 163.206 13.5 Z M 62.334 0 L 64.944 4.5 L 57.15 18 L 51.948 9 L 49.356 13.5 L 51.948 18 L 46.746 18 L 44.154 13.5 L 51.948 0 L 57.15 9 L 62.334 0 Z M 158.004 0 L 160.614 4.5 L 150.21 4.5 L 145.026 13.5 L 155.412 13.5 L 152.82 18 L 142.416 18 L 139.824 13.5 L 147.618 0 L 158.004 0 Z M 96.174 0 L 96.876 0 L 94.284 4.5 L 89.082 4.5 L 94.284 13.5 L 91.674 18 L 81.288 18 L 83.88 13.5 L 89.082 13.5 L 83.88 4.5 L 86.49 0 L 96.174 0 Z M 191.844 0 L 192.546 0 L 189.954 4.5 L 184.752 4.5 L 189.954 13.5 L 187.344 18 L 176.958 18 L 179.55 13.5 L 184.752 13.5 L 179.55 4.5 L 182.16 0 L 191.844 0 Z M 12.996 9 L 15.588 13.5 L 12.996 18 L 2.592 18 L 0 13.5 L 7.794 0 L 18.18 0 L 20.79 4.5 L 18.18 9 L 12.996 9 Z M 25.974 0 L 28.566 4.5 L 23.382 13.5 L 25.974 18 L 20.772 18 L 18.18 13.5 L 25.974 0 Z M 139.824 0 L 142.416 4.5 L 137.232 13.5 L 139.824 18 L 134.622 18 L 132.03 13.5 L 139.824 0 Z M 15.588 4.5 L 12.996 9 L 7.794 9 L 10.386 13.5 L 5.202 13.5 L 10.386 4.5 L 15.588 4.5 Z" vector-effect="non-scaling-stroke"/></g></svg>